<svg width="20" height="20" viewBox="0 0 20 20" fill="none" xmlns="http://www.w3.org/2000/svg">
<path d="M16.9304 3.42305C15.6366 2.81773 14.2533 2.37781 12.807 2.12732C12.6294 2.44844 12.4219 2.88036 12.2788 3.22395C10.7414 2.99274 9.21816 2.99274 7.70904 3.22395C7.566 2.88036 7.35378 2.44844 7.17458 2.12732C5.72677 2.37781 4.34184 2.81935 3.04808 3.42625C0.43857 7.36957 -0.268826 11.2149 0.0848727 15.0057C1.81564 16.2982 3.49296 17.0834 5.14197 17.5971C5.54912 17.0368 5.91225 16.4411 6.22507 15.8133C5.62929 15.5869 5.05866 15.3076 4.51948 14.9832C4.66252 14.8773 4.80244 14.7665 4.93762 14.6525C8.22622 16.1906 11.7994 16.1906 15.0487 14.6525C15.1855 14.7665 15.3253 14.8773 15.4668 14.9832C14.9261 15.3092 14.3539 15.5885 13.7581 15.8149C14.0709 16.4411 14.4325 17.0384 14.8412 17.5987C16.4918 17.0849 18.1707 16.2998 19.9014 15.0057C20.3164 10.6112 19.1925 6.80118 16.9304 3.42305ZM6.6731 12.6744C5.68589 12.6744 4.8763 11.7528 4.8763 10.6305C4.8763 9.5082 5.6686 8.58499 6.6731 8.58499C7.67762 8.58499 8.48718 9.50658 8.46989 10.6305C8.47145 11.7528 7.67762 12.6744 6.6731 12.6744ZM13.3132 12.6744C12.326 12.6744 11.5164 11.7528 11.5164 10.6305C11.5164 9.5082 12.3087 8.58499 13.3132 8.58499C14.3177 8.58499 15.1273 9.50658 15.11 10.6305C15.11 11.7528 14.3177 12.6744 13.3132 12.6744Z" fill="#5865F2"/>
</svg>
