<svg width="75" height="38" viewBox="0 0 75 38" fill="none" xmlns="http://www.w3.org/2000/svg">
<rect x="5" y="12" width="14" height="12" fill="white"/>
<path d="M13.6645 17.3818C13.0939 17.3818 12.6433 17.879 12.6433 18.4978C12.6433 19.1167 13.1039 19.6138 13.6645 19.6138C14.2352 19.6138 14.6857 19.1167 14.6857 18.4978C14.6857 17.879 14.2252 17.3818 13.6645 17.3818ZM10.0102 17.3818C9.43955 17.3818 8.98901 17.879 8.98901 18.4978C8.98901 19.1167 9.44956 19.6138 10.0102 19.6138C10.5809 19.6138 11.0314 19.1167 11.0314 18.4978C11.0414 17.879 10.5809 17.3818 10.0102 17.3818Z" fill="#7289DA"/>
<path d="M18.5303 8.94092H5.11443C3.9831 8.94092 3.06201 9.87429 3.06201 11.0207V24.6154C3.06201 25.7618 3.9831 26.6952 5.11443 26.6952H16.4678L15.9372 24.8386L17.2187 26.0358L18.4302 27.1619L20.5927 29.0591V11.0207C20.5827 9.87429 19.6616 8.94092 18.5303 8.94092ZM14.6657 22.0791C14.6657 22.0791 14.3053 21.6428 14.0049 21.2675C15.3165 20.8921 15.8171 20.0703 15.8171 20.0703C15.4066 20.3442 15.0161 20.537 14.6657 20.6689C14.1651 20.8819 13.6846 21.0138 13.214 21.1051C12.2529 21.2878 11.3718 21.237 10.6209 21.095C10.0503 20.9834 9.55968 20.8312 9.1492 20.6587C8.91892 20.5674 8.66863 20.4558 8.41833 20.3138C8.3883 20.2935 8.35826 20.2834 8.32823 20.2631C8.3082 20.2529 8.29819 20.2428 8.28818 20.2428C8.10797 20.1413 8.00785 20.0703 8.00785 20.0703C8.00785 20.0703 8.48842 20.8718 9.75992 21.2573C9.45956 21.6428 9.08912 22.0892 9.08912 22.0892C6.87651 22.0182 6.03552 20.5573 6.03552 20.5573C6.03552 17.3209 7.47722 14.6933 7.47722 14.6933C8.91892 13.6078 10.2805 13.6382 10.2805 13.6382L10.3806 13.7599C8.57852 14.2773 7.75755 15.0788 7.75755 15.0788C7.75755 15.0788 7.97781 14.9571 8.34825 14.7948C9.41951 14.3179 10.2705 14.1962 10.6209 14.1556C10.681 14.1455 10.7311 14.1353 10.7911 14.1353C11.4019 14.0541 12.0927 14.0339 12.8135 14.115C13.7646 14.2266 14.7858 14.5107 15.8271 15.0788C15.8271 15.0788 15.0361 14.3179 13.3341 13.8005L13.4743 13.6382C13.4743 13.6382 14.8459 13.6078 16.2776 14.6933C16.2776 14.6933 17.7193 17.3209 17.7193 20.5573C17.7193 20.5471 16.8783 22.0081 14.6657 22.0791V22.0791Z" fill="#7289DA"/>
<path d="M26.7087 14.5636H23.435V18.2905L25.6142 20.2789V16.6619H26.7777C27.5172 16.6619 27.882 17.0216 27.882 17.6011V20.3688C27.882 20.9484 27.5369 21.338 26.7777 21.338H23.4252V23.4463H26.6988C28.4539 23.4563 30.1006 22.567 30.1006 20.5287V17.5511C30.1105 15.4729 28.4638 14.5636 26.7087 14.5636ZM43.8656 20.5287V17.4712C43.8656 16.3721 45.8179 16.1223 46.4096 17.2214L48.214 16.482C47.5041 14.9033 46.2123 14.4437 45.1376 14.4437C43.3824 14.4437 41.647 15.4729 41.647 17.4712V20.5287C41.647 22.547 43.3824 23.5562 45.0981 23.5562C46.2025 23.5562 47.5238 23.0067 48.2534 21.5678L46.3208 20.6686C45.8475 21.8976 43.8656 21.5978 43.8656 20.5287ZM37.9001 17.8909C37.2198 17.741 36.7662 17.4912 36.7366 17.0616C36.7761 16.0324 38.3438 15.9924 39.2608 16.9816L40.7103 15.8525C39.8032 14.7335 38.7777 14.4337 37.7226 14.4337C36.1154 14.4337 34.5575 15.353 34.5575 17.0915C34.5575 18.7801 35.8393 19.6894 37.2493 19.9092C37.9691 20.0091 38.7678 20.2989 38.7481 20.7985C38.689 21.7477 36.7563 21.6977 35.8787 20.6186L34.4786 21.9475C35.297 23.0167 36.4112 23.5562 37.4564 23.5562C39.0636 23.5562 40.8483 22.617 40.9174 20.8984C41.016 18.7302 39.458 18.1806 37.9001 17.8909ZM31.2937 23.4363H33.5024V14.5636H31.2937V23.4363ZM68.5361 14.5636H65.2625V18.2905L67.4416 20.2789V16.6619H68.6051C69.3446 16.6619 69.7095 17.0216 69.7095 17.6011V20.3688C69.7095 20.9484 69.3644 21.338 68.6051 21.338H65.2526V23.4463H68.5361C70.2912 23.4563 71.9379 22.567 71.9379 20.5287V17.5511C71.9379 15.4729 70.2912 14.5636 68.5361 14.5636ZM52.4737 14.4437C50.6594 14.4437 48.8549 15.4429 48.8549 17.4912V20.5187C48.8549 22.547 50.6692 23.5662 52.4934 23.5662C54.3077 23.5662 56.1121 22.547 56.1121 20.5187V17.4912C56.1121 15.4529 54.2879 14.4437 52.4737 14.4437ZM53.8935 20.5187C53.8935 21.1582 53.1836 21.4879 52.4835 21.4879C51.7736 21.4879 51.0636 21.1782 51.0636 20.5187V17.4912C51.0636 16.8417 51.7539 16.492 52.4441 16.492C53.1639 16.492 53.8935 16.8018 53.8935 17.4912V20.5187ZM64.0398 17.4912C63.9905 15.4129 62.5903 14.5736 60.7859 14.5736H57.2855V23.4463H59.5238V20.6286H59.9182L61.9494 23.4463H64.7103L62.3241 20.3988C63.3792 20.0591 64.0398 19.1299 64.0398 17.4912ZM60.8253 18.6902H59.5238V16.6619H60.8253C62.2156 16.6619 62.2156 18.6902 60.8253 18.6902Z" fill="white"/>
</svg>
