<svg width="51" height="50" viewBox="0 0 51 50" fill="none" xmlns="http://www.w3.org/2000/svg">
<circle cx="25.2819" cy="25" r="25" fill="#0077B5"/>
<path d="M19.691 14.9091C19.691 15.5833 19.491 16.2425 19.1165 16.8031C18.7419 17.3637 18.2094 17.8007 17.5865 18.0587C16.9636 18.3167 16.2781 18.3842 15.6168 18.2527C14.9555 18.1211 14.3481 17.7965 13.8713 17.3197C13.3945 16.8429 13.0698 16.2355 12.9383 15.5742C12.8068 14.9129 12.8743 14.2274 13.1323 13.6045C13.3903 12.9816 13.8273 12.4491 14.3879 12.0745C14.9485 11.6999 15.6076 11.5 16.2819 11.5C17.186 11.5 18.0532 11.8592 18.6925 12.4985C19.3318 13.1378 19.691 14.0049 19.691 14.9091Z" fill="white"/>
<path d="M18.9183 20.5911V35.6524C18.9189 35.7635 18.8975 35.8737 18.8554 35.9765C18.8133 36.0793 18.7513 36.1728 18.673 36.2516C18.5946 36.3304 18.5014 36.3929 18.3988 36.4355C18.2962 36.4782 18.1862 36.5002 18.0751 36.5002H14.4819C14.3708 36.5005 14.2607 36.4788 14.158 36.4364C14.0553 36.394 13.962 36.3318 13.8834 36.2532C13.8049 36.1746 13.7426 36.0813 13.7002 35.9786C13.6578 35.8759 13.6362 35.7658 13.6365 35.6547V20.5911C13.6365 20.3668 13.7256 20.1518 13.8841 19.9932C14.0427 19.8347 14.2577 19.7456 14.4819 19.7456H18.0751C18.299 19.7462 18.5134 19.8355 18.6715 19.994C18.8295 20.1525 18.9183 20.3672 18.9183 20.5911Z" fill="white"/>
<path d="M37.7001 28.432V35.7229C37.7004 35.825 37.6805 35.9262 37.6416 36.0207C37.6026 36.1151 37.5454 36.2009 37.4731 36.2732C37.4009 36.3454 37.3151 36.4026 37.2206 36.4416C37.1262 36.4806 37.025 36.5005 36.9228 36.5002H33.0592C32.9571 36.5005 32.8558 36.4806 32.7614 36.4416C32.667 36.4026 32.5812 36.3454 32.5089 36.2732C32.4367 36.2009 32.3794 36.1151 32.3405 36.0207C32.3015 35.9262 32.2816 35.825 32.2819 35.7229V28.657C32.2819 27.6024 32.591 24.0388 29.5251 24.0388C27.1501 24.0388 26.666 26.4774 26.5706 27.5729V35.7229C26.5706 35.9271 26.4903 36.1231 26.347 36.2685C26.2036 36.414 26.0088 36.4972 25.8047 36.5002H22.0729C21.9709 36.5002 21.8699 36.48 21.7757 36.4409C21.6816 36.4019 21.596 36.3446 21.524 36.2724C21.452 36.2001 21.395 36.1144 21.3562 36.0202C21.3174 35.9259 21.2976 35.8248 21.2979 35.7229V20.5252C21.2976 20.4232 21.3174 20.3222 21.3562 20.2279C21.395 20.1336 21.452 20.0479 21.524 19.9757C21.596 19.9035 21.6816 19.8462 21.7757 19.8071C21.8699 19.768 21.9709 19.7479 22.0729 19.7479H25.8047C26.0108 19.7479 26.2085 19.8298 26.3543 19.9755C26.5001 20.1213 26.5819 20.319 26.5819 20.5252V21.8388C27.4638 20.5161 28.7706 19.4956 31.5592 19.4956C37.7365 19.4956 37.7001 25.2638 37.7001 28.432Z" fill="white"/>
</svg>
