<svg width="80" height="18" viewBox="0 0 80 18" fill="none" xmlns="http://www.w3.org/2000/svg">
<path d="M26.912 12.33C26.0837 12.33 25.3106 12.15 24.6111 11.79C23.93 11.43 23.3778 10.926 22.9544 10.26C22.5494 9.59403 22.3469 8.85603 22.3469 8.04603C22.3469 7.23603 22.5494 6.49803 22.9544 5.85003C23.3593 5.20203 23.9116 4.69803 24.6111 4.32003C25.3106 3.96003 26.0653 3.78003 26.912 3.78003C27.7404 3.78003 28.5135 3.96003 29.1946 4.32003C29.8941 4.68003 30.4463 5.18403 30.8329 5.85003C31.2379 6.49803 31.4403 7.23603 31.4403 8.04603C31.4403 8.85603 31.2379 9.59403 30.8329 10.26C30.4279 10.908 29.8757 11.412 29.1946 11.79C28.5135 12.15 27.7404 12.33 26.912 12.33ZM26.912 10.476C27.6115 10.476 28.1822 10.26 28.6055 9.81003C29.0289 9.36003 29.2498 8.78403 29.2498 8.04603C29.2498 7.30803 29.0289 6.71403 28.6055 6.28203C28.1822 5.83203 27.6299 5.61603 26.912 5.61603C26.1941 5.61603 25.6235 5.83203 25.2001 6.26403C24.7767 6.69603 24.5743 7.29003 24.5743 8.02803C24.5743 8.76603 24.7767 9.36003 25.2001 9.79203C25.6235 10.26 26.1941 10.476 26.912 10.476Z" fill="white"/>
<path d="M34.7904 6.55206C34.9929 6.24606 35.2874 5.99406 35.6556 5.79606C36.0237 5.59806 36.4655 5.50806 36.9625 5.50806C37.5516 5.50806 38.067 5.65206 38.5456 5.92206C39.0242 6.19206 39.3924 6.58806 39.6501 7.11006C39.9262 7.63206 40.0734 8.22606 40.0734 8.91006C40.0734 9.59406 39.9262 10.1881 39.6501 10.7101C39.374 11.2321 39.0058 11.6281 38.5456 11.9161C38.067 12.1861 37.5516 12.3301 36.9625 12.3301C36.4839 12.3301 36.0422 12.2401 35.6556 12.0421C35.2874 11.8441 34.9929 11.6101 34.7904 11.3041V14.2021H32.6367V5.59806H34.7904V6.55206ZM37.8645 8.91006C37.8645 8.40606 37.7173 8.01006 37.4043 7.72206C37.1098 7.43406 36.7416 7.29006 36.2999 7.29006C35.8765 7.29006 35.5083 7.43406 35.1954 7.72206C34.9009 8.01006 34.7536 8.42406 34.7536 8.92806C34.7536 9.43206 34.9009 9.82806 35.1954 10.1341C35.4899 10.4221 35.8581 10.5661 36.2999 10.5661C36.7232 10.5661 37.0914 10.4221 37.4043 10.1341C37.7173 9.82806 37.8645 9.43206 37.8645 8.91006Z" fill="white"/>
<path d="M47.8232 8.82007C47.8232 9.01807 47.8048 9.21607 47.7864 9.41407H42.9084C42.9452 9.82807 43.0741 10.1521 43.3318 10.3681C43.5895 10.5841 43.884 10.6921 44.2521 10.6921C44.786 10.6921 45.1725 10.4761 45.375 10.0441H47.676C47.5655 10.4761 47.3446 10.8721 47.0317 11.2141C46.7372 11.5561 46.3506 11.8441 45.8904 12.0421C45.4302 12.2401 44.9148 12.3481 44.3442 12.3481C43.6631 12.3481 43.0372 12.2041 42.5034 11.9341C41.9696 11.6641 41.5462 11.2681 41.2517 10.7461C40.9572 10.2241 40.7915 9.63007 40.7915 8.94607C40.7915 8.26207 40.9388 7.65007 41.2333 7.14607C41.5278 6.62407 41.9512 6.22807 42.485 5.95807C43.0188 5.68807 43.6447 5.54407 44.3442 5.54407C45.0253 5.54407 45.6327 5.67007 46.1665 5.94007C46.7004 6.21007 47.1053 6.58807 47.3999 7.09207C47.676 7.57807 47.8232 8.15407 47.8232 8.82007ZM45.6143 8.28007C45.6143 7.93807 45.4855 7.65007 45.2278 7.45207C44.97 7.25407 44.6571 7.14607 44.289 7.14607C43.9208 7.14607 43.6263 7.25407 43.3686 7.45207C43.1293 7.65007 42.982 7.93807 42.9084 8.29807H45.6143V8.28007Z" fill="white"/>
<path d="M53.2534 5.54407C54.0817 5.54407 54.726 5.79607 55.223 6.30007C55.72 6.80407 55.9593 7.48807 55.9593 8.37007V12.2401H53.824V8.64007C53.824 8.19007 53.6951 7.84807 53.4558 7.61407C53.2165 7.36207 52.8852 7.25407 52.4802 7.25407C52.0753 7.25407 51.7439 7.38007 51.5046 7.61407C51.2653 7.86607 51.1365 8.20807 51.1365 8.64007V12.2401H48.9644V5.59807H51.1181V6.48007C51.339 6.19207 51.6335 5.95807 52.0016 5.79607C52.3698 5.63407 52.7932 5.54407 53.2534 5.54407Z" fill="white"/>
<path d="M60.6533 12.33C60.009 12.33 59.42 12.222 58.9045 12.024C58.3891 11.826 57.9842 11.538 57.6712 11.142C57.3767 10.746 57.211 10.278 57.1926 9.73803H59.4936C59.5304 10.044 59.6409 10.278 59.8433 10.458C60.0274 10.62 60.2851 10.692 60.5981 10.692C60.911 10.692 61.1687 10.62 61.3528 10.494C61.5368 10.35 61.6289 10.152 61.6289 9.91803C61.6289 9.72003 61.5553 9.54003 61.408 9.41403C61.2607 9.28803 61.0767 9.16203 60.8742 9.09003C60.6717 9.00003 60.3588 8.91003 59.9722 8.78403C59.4015 8.62203 58.9414 8.46003 58.5732 8.28003C58.2051 8.11803 57.8921 7.86603 57.6344 7.54203C57.3767 7.21803 57.2478 6.78603 57.2478 6.26403C57.2478 5.49003 57.5424 4.87803 58.1498 4.44603C58.7389 3.99603 59.5304 3.78003 60.4876 3.78003C61.4632 3.78003 62.2547 3.99603 62.8438 4.44603C63.4328 4.87803 63.7642 5.49003 63.801 6.28203H61.4632C61.4448 6.01203 61.3344 5.79603 61.1503 5.65203C60.9662 5.49003 60.7085 5.41803 60.414 5.41803C60.1563 5.41803 59.9354 5.49003 59.7881 5.61603C59.6224 5.74203 59.5488 5.92203 59.5488 6.17403C59.5488 6.44403 59.6777 6.66003 59.9538 6.80403C60.2299 6.94803 60.6349 7.11003 61.2055 7.29003C61.7761 7.47003 62.2363 7.65003 62.5861 7.81203C62.9542 7.97403 63.2672 8.22603 63.5249 8.53203C63.7826 8.85603 63.9114 9.25203 63.9114 9.75603C63.9114 10.224 63.7826 10.656 63.5249 11.052C63.2672 11.448 62.899 11.754 62.4204 11.988C61.905 12.222 61.3344 12.33 60.6533 12.33Z" fill="white"/>
<path d="M71.8452 8.82007C71.8452 9.01807 71.8268 9.21607 71.8084 9.41407H66.9304C66.9672 9.82807 67.096 10.1521 67.3537 10.3681C67.6114 10.5841 67.906 10.6921 68.2741 10.6921C68.8079 10.6921 69.1945 10.4761 69.397 10.0441H71.698C71.5875 10.4761 71.3666 10.8721 71.0537 11.2141C70.7592 11.5561 70.3726 11.8441 69.9124 12.0421C69.4522 12.2401 68.9368 12.3481 68.3662 12.3481C67.6851 12.3481 67.0592 12.2041 66.5254 11.9341C65.9916 11.6641 65.5682 11.2681 65.2737 10.7461C64.9791 10.2241 64.8135 9.63007 64.8135 8.94607C64.8135 8.26207 64.9607 7.65007 65.2553 7.14607C65.5498 6.62407 65.9732 6.22807 66.507 5.95807C67.0408 5.68807 67.6667 5.54407 68.3662 5.54407C69.0472 5.54407 69.6547 5.67007 70.1885 5.94007C70.7223 6.21007 71.1273 6.58807 71.4218 7.09207C71.698 7.57807 71.8452 8.15407 71.8452 8.82007ZM69.6363 8.28007C69.6363 7.93807 69.5074 7.65007 69.2497 7.45207C68.992 7.25407 68.6791 7.14607 68.3109 7.14607C67.9428 7.14607 67.6483 7.25407 67.3906 7.45207C67.1513 7.65007 67.004 7.93807 66.9304 8.29807H69.6363V8.28007Z" fill="white"/>
<path d="M72.5632 8.91006C72.5632 8.22606 72.6921 7.63206 72.9682 7.11006C73.2443 6.58806 73.6125 6.19206 74.0911 5.92206C74.5697 5.65206 75.0851 5.50806 75.6741 5.50806C76.1711 5.50806 76.5945 5.59806 76.9811 5.79606C77.3676 5.99406 77.6437 6.22806 77.8462 6.55206V5.61606H79.9999V12.2581H77.8462V11.3221C77.6437 11.6281 77.3492 11.8801 76.9627 12.0781C76.5945 12.2761 76.1527 12.3661 75.6557 12.3661C75.0851 12.3661 74.5697 12.2221 74.0911 11.9521C73.6125 11.6641 73.2443 11.2681 72.9682 10.7461C72.6921 10.2061 72.5632 9.59406 72.5632 8.91006ZM77.8278 8.92806C77.8278 8.42406 77.6806 8.02806 77.3676 7.72206C77.0731 7.43406 76.705 7.29006 76.2816 7.29006C75.8582 7.29006 75.49 7.43406 75.1771 7.72206C74.8826 8.01006 74.7353 8.40606 74.7353 8.91006C74.7353 9.41406 74.8826 9.82806 75.1771 10.1161C75.4716 10.4041 75.8398 10.5481 76.2816 10.5481C76.705 10.5481 77.0731 10.4041 77.3676 10.1161C77.6806 9.84606 77.8278 9.43206 77.8278 8.92806Z" fill="white"/>
<path d="M18.4077 9C18.4077 13.968 14.2844 18 9.20386 18C4.12333 18 0 13.968 0 9C0 4.032 4.12333 0 9.20386 0C14.2844 0 18.4077 4.032 18.4077 9Z" fill="#2081E2"/>
<path d="M4.5468 9.30606L4.58362 9.25206L6.97662 5.59806C7.01343 5.54406 7.08706 5.54406 7.12388 5.61606C7.52885 6.49806 7.86019 7.57806 7.71293 8.26206C7.6393 8.55006 7.45522 8.92806 7.23433 9.27006C7.21592 9.32406 7.1791 9.37806 7.14229 9.41406C7.12388 9.43206 7.10547 9.45006 7.06866 9.45006H4.60203C4.5468 9.43206 4.50999 9.36006 4.5468 9.30606Z" fill="white"/>
<path d="M15.2047 9.9901V10.5661C15.2047 10.6021 15.1863 10.6201 15.1495 10.6381C14.9654 10.7101 14.3212 10.9981 14.0635 11.3581C13.3824 12.2761 12.867 13.5901 11.7257 13.5901H6.92126C5.22775 13.5901 3.84717 12.2401 3.84717 10.5661V10.5121C3.84717 10.4761 3.88398 10.4401 3.9208 10.4401H6.62673C6.68196 10.4401 6.71877 10.4941 6.71877 10.5301C6.70036 10.6921 6.73718 10.8721 6.81081 11.0341C6.97648 11.3581 7.30782 11.5381 7.65757 11.5381H8.98292V10.5301H7.67597C7.60234 10.5301 7.56553 10.4581 7.60234 10.4041C7.62075 10.3861 7.63916 10.3681 7.65757 10.3321C7.78642 10.1521 7.95209 9.9001 8.13617 9.5941C8.26502 9.3961 8.37547 9.1621 8.46751 8.9461C8.48591 8.9101 8.50432 8.8741 8.52273 8.8201C8.54114 8.7481 8.57795 8.6761 8.59636 8.6221C8.61477 8.5681 8.63317 8.5141 8.65158 8.4601C8.6884 8.2801 8.70681 8.0821 8.70681 7.8661C8.70681 7.7941 8.70681 7.7041 8.6884 7.6141C8.6884 7.5241 8.66999 7.4341 8.66999 7.3441C8.66999 7.2721 8.65158 7.1821 8.63317 7.1101C8.61477 6.9841 8.59636 6.8761 8.55954 6.7501L8.54114 6.7141C8.52273 6.6421 8.50432 6.5521 8.46751 6.4801C8.39387 6.2281 8.30184 5.9761 8.2098 5.7601C8.17298 5.6701 8.13617 5.5801 8.09935 5.4901C8.04413 5.3641 7.9889 5.2381 7.93368 5.1301C7.91527 5.0761 7.87846 5.0401 7.86005 4.9861C7.84164 4.9321 7.80483 4.8781 7.78642 4.8241C7.76801 4.7881 7.7496 4.7521 7.7312 4.7161L7.56553 4.4281C7.54712 4.3921 7.58394 4.3381 7.62075 4.3561L8.63317 4.6261L8.76203 4.6621L8.90929 4.6981L8.96451 4.7161V4.1221C8.96451 3.8341 9.20381 3.6001 9.47993 3.6001C9.62719 3.6001 9.75605 3.6541 9.84808 3.7441C9.94012 3.8341 9.99535 3.9601 9.99535 4.1041V4.9681L10.1058 5.0041C10.1058 5.0041 10.1242 5.0041 10.1242 5.0221C10.1426 5.0401 10.1794 5.0761 10.2346 5.1121C10.2715 5.1481 10.3083 5.1841 10.3635 5.2201C10.4555 5.2921 10.5844 5.4001 10.7132 5.5081C10.7501 5.5441 10.7869 5.5621 10.8053 5.5981C10.971 5.7421 11.155 5.9221 11.3391 6.1201C11.3943 6.1741 11.4311 6.2281 11.4864 6.2821C11.5416 6.3361 11.5784 6.4081 11.6336 6.4621C11.6889 6.5341 11.7625 6.6241 11.8177 6.6961C11.8361 6.7321 11.8729 6.7681 11.8913 6.8221C11.965 6.9301 12.0202 7.0381 12.0938 7.1461C12.1122 7.2001 12.1491 7.2541 12.1675 7.3081C12.2411 7.4521 12.2963 7.5961 12.3147 7.7581C12.3331 7.7941 12.3331 7.8301 12.3331 7.8481C12.3515 7.8841 12.3515 7.9381 12.3515 7.9921C12.3699 8.1541 12.3515 8.2981 12.3331 8.4601C12.3147 8.5321 12.2963 8.5861 12.2779 8.6581C12.2595 8.7121 12.2411 8.7841 12.2043 8.8561C12.149 8.9821 12.0754 9.1081 12.0018 9.2341C11.9834 9.2701 11.9466 9.3241 11.9097 9.3781C11.8729 9.4321 11.8361 9.4681 11.8177 9.5221C11.7809 9.5761 11.7257 9.6301 11.6889 9.6841C11.652 9.7381 11.6152 9.7921 11.56 9.8461C11.5048 9.9181 11.4311 9.9901 11.3759 10.0621C11.3391 10.0981 11.3023 10.1521 11.2471 10.1881C11.2103 10.2241 11.1734 10.2781 11.1182 10.3141C11.063 10.3681 11.0078 10.4221 10.9525 10.4581L10.8421 10.5481C10.8237 10.5661 10.8053 10.5661 10.7869 10.5661H9.97694V11.5741H10.9894C11.2103 11.5741 11.4311 11.5021 11.5968 11.3581C11.652 11.3041 11.9097 11.0881 12.2227 10.7641C12.2411 10.7461 12.2411 10.7461 12.2595 10.7461L15.0575 9.9541C15.1679 9.9001 15.2047 9.9361 15.2047 9.9901Z" fill="white"/>
</svg>
