<svg width="20" height="20" viewBox="0 0 20 20" fill="none" xmlns="http://www.w3.org/2000/svg">
<path d="M1.47398 11.0569L1.54209 10.9498L5.64956 4.52415C5.70959 4.43007 5.85072 4.4398 5.89613 4.54199C6.58234 6.07985 7.17445 7.99246 6.89706 9.18318C6.77864 9.67309 6.45419 10.3366 6.08917 10.9498C6.04215 11.039 5.99024 11.1266 5.93507 11.211C5.90911 11.2499 5.86531 11.2726 5.81826 11.2726H1.59401C1.48045 11.2726 1.41395 11.1493 1.47398 11.0569Z" fill="#E6E6E6"/>
<path d="M19.7826 12.2508V13.2679C19.7826 13.3263 19.7469 13.3783 19.695 13.401C19.377 13.5372 18.2885 14.0369 17.8359 14.6663C16.6809 16.2739 15.7984 18.5726 13.8258 18.5726H5.59623C2.67951 18.5726 0.315918 16.2009 0.315918 13.2744V13.1803C0.315918 13.1025 0.37917 13.0392 0.457044 13.0392H5.04471C5.13553 13.0392 5.20203 13.1236 5.19395 13.2128C5.16149 13.5113 5.21666 13.8163 5.35778 14.0936C5.63031 14.6468 6.19485 14.9924 6.80479 14.9924H9.07592V13.2193H6.83075C6.71558 13.2193 6.64747 13.0862 6.71397 12.9922C6.73829 12.9548 6.76589 12.9159 6.79507 12.8721C7.00759 12.5704 7.31094 12.1016 7.61268 11.5679C7.8187 11.2077 8.01821 10.8233 8.17882 10.4372C8.21129 10.3674 8.23721 10.296 8.26317 10.2263C8.30697 10.103 8.35241 9.98781 8.38485 9.87264C8.41731 9.77529 8.44323 9.6731 8.46919 9.57738C8.54546 9.24969 8.57789 8.90254 8.57789 8.54241C8.57789 8.40129 8.57141 8.25365 8.55843 8.11253C8.55193 7.95842 8.53248 7.80429 8.51299 7.65018C8.50001 7.51392 8.4757 7.37927 8.44974 7.23814C8.41731 7.03212 8.37187 6.82774 8.31995 6.62169L8.30211 6.54384C8.26317 6.40269 8.23074 6.26806 8.18533 6.12694C8.05715 5.68404 7.90955 5.25255 7.7538 4.84862C7.69702 4.68801 7.63213 4.53391 7.56724 4.3798C7.47155 4.14782 7.37419 3.93694 7.28498 3.73739C7.23957 3.64654 7.20063 3.5638 7.1617 3.47945C7.1179 3.38374 7.07249 3.28802 7.02705 3.1972C6.99461 3.12744 6.95729 3.06255 6.93133 2.99765L6.65394 2.48503C6.615 2.41528 6.6799 2.33254 6.75613 2.35363L8.49193 2.82406H8.49679C8.50001 2.82406 8.50166 2.82571 8.50327 2.82571L8.73199 2.88896L8.98346 2.96036L9.07592 2.98629V1.95457C9.07592 1.45654 9.47498 1.05261 9.96815 1.05261C10.2147 1.05261 10.4386 1.15319 10.5992 1.31702C10.7598 1.48089 10.8604 1.70475 10.8604 1.95457V3.48596L11.0453 3.53784C11.0599 3.54274 11.0745 3.54921 11.0875 3.55894C11.1329 3.59301 11.1978 3.64329 11.2805 3.70496C11.3454 3.75684 11.4152 3.82013 11.4995 3.88502C11.6666 4.01964 11.8661 4.19323 12.0851 4.39278C12.1435 4.44305 12.2003 4.49497 12.2522 4.54689C12.5345 4.80969 12.8508 5.1179 13.1526 5.45857C13.2369 5.55429 13.3197 5.65161 13.404 5.7538C13.4884 5.85763 13.5776 5.95982 13.6554 6.06204C13.7577 6.19831 13.868 6.33943 13.9637 6.48706C14.0091 6.55682 14.061 6.62819 14.1048 6.69795C14.2281 6.88449 14.3368 7.07756 14.4406 7.2706C14.4844 7.35981 14.5298 7.45714 14.5688 7.55285C14.6839 7.81079 14.7748 8.07359 14.8332 8.33639C14.851 8.39317 14.864 8.45481 14.8705 8.50998V8.52296C14.89 8.6008 14.8965 8.68354 14.9029 8.76789C14.9289 9.03719 14.9159 9.30646 14.8575 9.57738C14.8332 9.69258 14.8007 9.80124 14.7618 9.91644C14.7229 10.0267 14.6839 10.1419 14.6337 10.2506C14.5363 10.4761 14.4211 10.7016 14.2849 10.9125C14.2411 10.9903 14.1892 11.0731 14.1372 11.151C14.0805 11.2337 14.0221 11.3115 13.9702 11.3878C13.8988 11.4851 13.8226 11.5873 13.7447 11.6782C13.6749 11.7739 13.6036 11.8696 13.5257 11.9539C13.417 12.0821 13.3132 12.2038 13.2045 12.3206C13.1396 12.3968 13.0698 12.4747 12.9984 12.5444C12.9287 12.6223 12.8573 12.692 12.7924 12.7569C12.6838 12.8656 12.5929 12.95 12.5166 13.0197L12.3382 13.1836C12.3123 13.2063 12.2782 13.2193 12.2425 13.2193H10.8604V14.9924H12.5994C12.9887 14.9924 13.3586 14.8545 13.6571 14.6014C13.7593 14.5122 14.2054 14.1261 14.7326 13.5437C14.7504 13.5242 14.7732 13.5097 14.7991 13.5032L19.6025 12.1146C19.6918 12.0886 19.7826 12.1567 19.7826 12.2508Z" fill="#E6E6E6"/>
</svg>
