<svg width="51" height="50" viewBox="0 0 51 50" fill="none" xmlns="http://www.w3.org/2000/svg">
<circle cx="25.2817" cy="25" r="25" fill="#03A9F4"/>
<g clip-path="url(#clip0_1208_3003)">
<path d="M39.2817 16.9384C38.3149 17.3625 37.2846 17.6436 36.2105 17.7801C37.3155 17.1204 38.1589 16.0836 38.5554 14.834C37.5251 15.4482 36.3876 15.8821 35.1754 16.1243C34.1971 15.0826 32.8029 14.4375 31.2819 14.4375C28.3309 14.4375 25.9551 16.8328 25.9551 19.7691C25.9551 20.1916 25.9909 20.5979 26.0786 20.9846C21.6472 20.7685 17.7261 18.6446 15.092 15.4093C14.6321 16.2071 14.3624 17.1204 14.3624 18.1035C14.3624 19.9495 15.313 21.5859 16.73 22.5332C15.8736 22.517 15.0335 22.2684 14.3217 21.8767C14.3217 21.893 14.3217 21.9141 14.3217 21.9352C14.3217 24.5255 16.1694 26.677 18.5922 27.1726C18.1584 27.2913 17.6855 27.3481 17.1947 27.3481C16.8535 27.3481 16.509 27.3286 16.1856 27.2571C16.8762 29.368 18.836 30.9199 21.1662 30.9702C19.3527 32.3889 17.0501 33.2436 14.5574 33.2436C14.1202 33.2436 13.701 33.2241 13.2817 33.1705C15.6429 34.6931 18.4411 35.5625 21.4587 35.5625C31.2672 35.5625 36.6297 27.4375 36.6297 20.3947C36.6297 20.1591 36.6216 19.9316 36.6102 19.7057C37.6681 18.955 38.557 18.0174 39.2817 16.9384Z" fill="white"/>
</g>
<defs>
<clipPath id="clip0_1208_3003">
<rect width="26" height="26" fill="white" transform="translate(13.2817 12)"/>
</clipPath>
</defs>
</svg>
