<svg width="76" height="15" viewBox="0 0 76 15" fill="none" xmlns="http://www.w3.org/2000/svg">
<path d="M23.4055 2.34706C23.1299 1.42941 22.3228 0.705882 21.2992 0.458824C19.4291 0 11.9488 0 11.9488 0C11.9488 0 4.4685 0 2.59843 0.441176C1.59449 0.688235 0.767717 1.42941 0.492126 2.34706C0 4.02353 0 7.5 0 7.5C0 7.5 0 10.9941 0.492126 12.6529C0.767717 13.5706 1.5748 14.2941 2.59843 14.5412C4.48819 15 11.9488 15 11.9488 15C11.9488 15 19.4291 15 21.2992 14.5588C22.3228 14.3118 23.1299 13.5882 23.4055 12.6706C23.8976 10.9941 23.8976 7.51765 23.8976 7.51765C23.8976 7.51765 23.9173 4.02353 23.4055 2.34706Z" fill="#FF6565"/>
<path d="M9.56689 4.28821V10.7117L15.7874 7.49998L9.56689 4.28821Z" fill="white"/>
<path d="M34.8229 13.6589C34.3505 13.3765 34.0158 12.9354 33.819 12.3177C33.6221 11.7177 33.5237 10.9059 33.5237 9.91771V8.55888C33.5237 7.553 33.6418 6.74124 33.8583 6.12359C34.0945 5.50594 34.4489 5.06477 34.9213 4.78242C35.4134 4.50006 36.0434 4.35889 36.8308 4.35889C37.5985 4.35889 38.2284 4.50006 38.7008 4.78242C39.1733 5.06477 39.5079 5.52359 39.7245 6.12359C39.941 6.72359 40.0591 7.53536 40.0591 8.55888V9.91771C40.0591 10.9236 39.9607 11.7177 39.7442 12.3354C39.5276 12.9354 39.193 13.3942 38.7205 13.6765C38.2481 13.9589 37.5985 14.1001 36.7914 14.1001C35.9646 14.0824 35.2953 13.9412 34.8229 13.6589ZM37.4804 12.1765C37.6182 11.8765 37.6772 11.3648 37.6772 10.6765V7.74712C37.6772 7.07653 37.6182 6.58241 37.4804 6.26477C37.3426 5.94712 37.126 5.80594 36.7914 5.80594C36.4764 5.80594 36.2402 5.96477 36.1221 6.26477C35.9843 6.58241 35.9253 7.07653 35.9253 7.74712V10.6765C35.9253 11.3648 35.9843 11.8765 36.1221 12.1765C36.2402 12.4765 36.4764 12.6354 36.8111 12.6354C37.126 12.6354 37.3426 12.4942 37.4804 12.1765Z" fill="white"/>
<path d="M71.1614 9.93538V10.4118C71.1614 11.0118 71.1811 11.4707 71.2204 11.7707C71.2598 12.0707 71.3385 12.3001 71.4763 12.4236C71.5945 12.5648 71.7913 12.6354 72.0669 12.6354C72.4212 12.6354 72.6574 12.5119 72.7952 12.2648C72.933 12.0177 72.9921 11.6118 73.0118 11.0295L75.0393 11.1354C75.059 11.2236 75.059 11.3295 75.059 11.4707C75.059 12.3354 74.8031 12.9883 74.2716 13.4119C73.7401 13.8354 72.9921 14.0471 72.0275 14.0471C70.8661 14.0471 70.059 13.7119 69.5866 13.0589C69.1141 12.406 68.8779 11.4001 68.8779 10.0236V8.38244C68.8779 6.97067 69.1142 5.94714 69.6063 5.2942C70.0984 4.64126 70.9252 4.32361 72.0866 4.32361C72.8937 4.32361 73.5236 4.46478 73.9566 4.72949C74.3897 4.9942 74.685 5.41773 74.8621 5.96479C75.0393 6.52949 75.118 7.30596 75.118 8.2942V9.90008H71.1614V9.93538ZM71.4567 5.98243C71.3385 6.12361 71.2598 6.33537 71.2204 6.63537C71.1811 6.93538 71.1614 7.3942 71.1614 8.01185V8.68244H72.8937V8.01185C72.8937 7.41185 72.874 6.95302 72.8346 6.63537C72.7952 6.31773 72.6968 6.10596 72.5787 5.98243C72.4606 5.8589 72.2637 5.78832 72.0275 5.78832C71.7519 5.77067 71.5748 5.84126 71.4567 5.98243Z" fill="white"/>
<path d="M29.0749 9.75883L26.3977 1.05884H28.7402L29.6851 4.99413C29.9213 5.96472 30.0985 6.79413 30.2166 7.48236H30.2757C30.3544 6.98824 30.5316 6.17648 30.8072 5.01177L31.7914 1.05884H34.1339L31.4174 9.75883V13.9235H29.0946V9.75883H29.0749Z" fill="white"/>
<path d="M47.6772 4.53528V13.9412H45.8268L45.6299 12.7941H45.5709C45.0787 13.6588 44.311 14.1 43.3071 14.1C42.6181 14.1 42.1063 13.8882 41.7717 13.4823C41.437 13.0765 41.2795 12.4412 41.2795 11.5588V4.53528H43.6417V11.4353C43.6417 11.8588 43.7008 12.1588 43.7992 12.3353C43.8976 12.5117 44.0748 12.6 44.311 12.6C44.5079 12.6 44.7047 12.547 44.9016 12.4235C45.0984 12.3176 45.2362 12.1765 45.315 12V4.53528H47.6772Z" fill="white"/>
<path d="M59.7836 4.53528V13.9412H57.9332L57.7364 12.7941H57.6773C57.1852 13.6588 56.4175 14.1 55.4135 14.1C54.7246 14.1 54.2128 13.8882 53.8781 13.4823C53.5435 13.0765 53.386 12.4412 53.386 11.5588V4.53528H55.7482V11.4353C55.7482 11.8588 55.8072 12.1588 55.9057 12.3353C56.0041 12.5117 56.1813 12.6 56.4175 12.6C56.6143 12.6 56.8112 12.547 57.008 12.4235C57.2049 12.3176 57.3427 12.1765 57.4214 12V4.53528H59.7836Z" fill="white"/>
<path d="M54.0944 2.7706H51.7519V13.9235H49.4487V2.7706H47.1062V1.05884H54.0944V2.7706Z" fill="white"/>
<path d="M67.5986 6.03534C67.4608 5.43534 67.2246 5.01181 66.9096 4.7471C66.5947 4.4824 66.1419 4.34122 65.5907 4.34122C65.1576 4.34122 64.7443 4.4471 64.3702 4.67651C63.9962 4.88828 63.7009 5.18828 63.5041 5.54122H63.4844V0.582397H61.2009V13.9236H63.1498L63.386 13.0412H63.445C63.6222 13.3589 63.8978 13.6059 64.2718 13.8C64.6458 13.9765 65.0395 14.0824 65.4923 14.0824C66.2994 14.0824 66.8703 13.7471 67.2443 13.0942C67.6183 12.4412 67.8151 11.4 67.8151 10.0059V8.52357C67.7955 7.4471 67.7364 6.61769 67.5986 6.03534ZM65.4332 9.86475C65.4332 10.553 65.3939 11.0824 65.3348 11.4706C65.2758 11.8589 65.1576 12.1412 65.0199 12.3C64.8624 12.4589 64.6655 12.5471 64.4293 12.5471C64.2324 12.5471 64.0553 12.5118 63.8978 12.4236C63.7403 12.3353 63.6025 12.2118 63.5041 12.053V6.72357C63.5828 6.47651 63.7206 6.26475 63.9175 6.08828C64.1143 5.92946 64.3309 5.84122 64.5474 5.84122C64.7836 5.84122 64.9805 5.92946 65.0986 6.08828C65.2364 6.26475 65.3151 6.5471 65.3742 6.93534C65.4332 7.34122 65.4529 7.90593 65.4529 8.62946V9.86475H65.4332Z" fill="white"/>
</svg>
