<svg width="117" height="117" viewBox="0 0 117 117" fill="none" xmlns="http://www.w3.org/2000/svg">
<g opacity="0.7">
<path d="M60.8615 20.1663V2.28516C60.8615 1.02306 59.8382 0 58.5763 0C57.3142 0 56.2911 1.02306 56.2911 2.28516V20.1663C31.8957 21.3614 12.4161 41.583 12.4161 66.2695C12.4161 91.7223 33.1235 112.43 58.5763 112.43C84.0291 112.43 104.736 91.7223 104.736 66.2695C104.736 41.5832 85.2567 21.3614 60.8615 20.1663ZM92.3637 42.0469H79.2766C78.3859 39.2519 77.3345 36.6285 76.1318 34.2234C74.6396 31.239 72.9653 28.6974 71.1515 26.6248C79.7762 29.3668 87.1894 34.8498 92.3637 42.0469ZM95.2211 85.9219H80.5522C81.8591 80.5289 82.6184 74.6485 82.7702 68.5547H100.102C99.7619 74.8082 98.0336 80.6982 95.2211 85.9219ZM39.5133 76.2803C39.3627 75.0274 38.2258 74.1318 36.972 74.284C35.719 74.4344 34.8251 75.5724 34.9757 76.8254C35.3529 79.9672 35.9046 83.0172 36.6109 85.9221H21.9311C19.1183 80.6985 17.3902 74.8085 17.0498 68.5549H26.3554C27.6175 68.5549 28.6405 67.5316 28.6405 66.2698C28.6405 65.0079 27.6175 63.9846 26.3554 63.9846H17.05C17.3902 57.731 19.1185 51.8411 21.9313 46.6174H36.6111C35.9034 49.5278 35.3509 52.584 34.9736 55.7324C34.8235 56.9856 35.7174 58.1232 36.9706 58.2733C38.224 58.4237 39.3613 57.5295 39.5115 56.2765C39.9205 52.8646 40.5318 49.6272 41.3131 46.6174H56.2914V63.9846H46.9225C45.6604 63.9846 44.6373 65.0079 44.6373 66.2698C44.6373 67.5316 45.6604 68.5549 46.9225 68.5549H56.2914V85.9221H41.3135C40.5332 82.9171 39.9223 79.6857 39.5133 76.2803ZM60.8615 42.0469V24.9765C66.3657 26.397 71.2544 32.8601 74.4314 42.0469H60.8615ZM75.8114 46.6172C77.1807 51.8685 78.0283 57.7701 78.1964 63.9844H60.8612V46.6172H75.8114ZM56.2909 24.9774V42.0469H42.6885C45.8973 32.7616 50.8436 26.389 56.2909 24.9774ZM56.2909 90.4922V107.561C50.8442 106.15 45.8978 99.777 42.6888 90.4922H56.2909ZM60.8615 107.563V90.4922H74.4314C71.2544 99.679 66.3657 106.142 60.8615 107.563ZM60.8615 85.9219V68.5547H78.1967C78.0285 74.7689 77.1809 80.6706 75.8116 85.9219H60.8615ZM82.7702 63.9844C82.6184 57.8905 81.8591 52.0102 80.5522 46.6172H95.2211C98.0339 51.8408 99.7619 57.7308 100.102 63.9844H82.7702ZM46.0221 26.6177C44.946 27.838 43.9205 29.2196 42.9582 30.7571C40.9564 33.9549 39.2446 37.7878 37.8883 42.0469H24.7884C29.9671 34.8438 37.3883 29.3574 46.0221 26.6177ZM24.7884 90.4922H37.8886C39.2457 94.754 40.9587 98.589 42.9618 101.788C43.9232 103.323 44.9474 104.703 46.0221 105.921C37.3883 103.182 29.9671 97.6952 24.7884 90.4922ZM71.1518 105.914C72.9657 103.842 74.6398 101.3 76.132 98.3156C77.3347 95.9105 78.3859 93.2872 79.2768 90.4922H92.3639C87.1894 97.6893 79.7762 103.172 71.1518 105.914Z" fill="white"/>
<path d="M11.5018 94.1484C10.2397 94.1484 9.21667 95.1717 9.21667 96.4336V99.4804C9.21667 100.742 10.2397 101.766 11.5018 101.766C12.7639 101.766 13.787 100.742 13.787 99.4804V96.4336C13.787 95.1717 12.7639 94.1484 11.5018 94.1484Z" fill="white"/>
<path d="M11.5018 109.383C10.2397 109.383 9.21667 110.406 9.21667 111.668V114.715C9.21667 115.977 10.2397 117 11.5018 117C12.7639 117 13.787 115.977 13.787 114.715V111.668C13.787 110.406 12.7639 109.383 11.5018 109.383Z" fill="white"/>
<path d="M20.6425 103.289H17.5957C16.3336 103.289 15.3105 104.312 15.3105 105.574C15.3105 106.836 16.3336 107.859 17.5957 107.859H20.6427C21.9048 107.859 22.9279 106.836 22.9279 105.574C22.9279 104.312 21.9046 103.289 20.6425 103.289Z" fill="white"/>
<path d="M5.40801 103.289H2.36121C1.09911 103.289 0.0760498 104.312 0.0760498 105.574C0.0760498 106.836 1.09911 107.859 2.36121 107.859H5.40801C6.6701 107.859 7.69316 106.836 7.69316 105.574C7.69316 104.312 6.6701 103.289 5.40801 103.289Z" fill="white"/>
<path d="M105.498 12.3398C104.236 12.3398 103.213 13.3631 103.213 14.625V17.6718C103.213 18.9337 104.236 19.957 105.498 19.957C106.76 19.957 107.783 18.9337 107.783 17.6718V14.625C107.783 13.3631 106.76 12.3398 105.498 12.3398Z" fill="white"/>
<path d="M105.498 27.5743C104.236 27.5743 103.213 28.5976 103.213 29.8594V32.9062C103.213 34.1683 104.236 35.1914 105.498 35.1914C106.76 35.1914 107.783 34.1683 107.783 32.9062V29.8594C107.783 28.5976 106.76 27.5743 105.498 27.5743Z" fill="white"/>
<path d="M114.639 21.4805H111.592C110.33 21.4805 109.307 22.5038 109.307 23.7656C109.307 25.0275 110.33 26.0508 111.592 26.0508H114.639C115.901 26.0508 116.924 25.0275 116.924 23.7656C116.924 22.5038 115.901 21.4805 114.639 21.4805Z" fill="white"/>
<path d="M96.3574 26.0508H99.4042C100.666 26.0508 101.689 25.0275 101.689 23.7656C101.689 22.5038 100.666 21.4805 99.4042 21.4805H96.3574C95.0956 21.4805 94.0723 22.5038 94.0723 23.7656C94.0723 25.0275 95.0953 26.0508 96.3574 26.0508Z" fill="white"/>
<path d="M36.6377 63.9844C36.0367 63.9844 35.4471 64.2287 35.0221 64.6539C34.5971 65.079 34.3525 65.6685 34.3525 66.2695C34.3525 66.8705 34.5971 67.4601 35.0221 67.8849C35.4494 68.3099 36.0367 68.5547 36.6377 68.5547C37.2387 68.5547 37.8283 68.3102 38.2533 67.8849C38.6806 67.4601 38.9229 66.8705 38.9229 66.2695C38.9229 65.6685 38.6806 65.079 38.2533 64.6539C37.8285 64.2287 37.241 63.9844 36.6377 63.9844Z" fill="white"/>
</g>
</svg>
