<svg width="95" height="95" viewBox="0 0 95 95" fill="none" xmlns="http://www.w3.org/2000/svg">
<g opacity="0.7" clip-path="url(#clip0_1198_2606)">
<path d="M47.9106 24.0291L41.0398 20.4802C40.2888 20.0923 39.3553 20.074 38.6037 20.4324C38.0321 20.7046 37.6105 21.1752 37.4163 21.747L35.9491 24.5878C35.5902 25.0878 35.4508 25.717 35.5648 26.3518C35.6024 26.5608 35.6665 26.7649 35.7534 26.9601C34.6297 28.3998 33.3158 30.1912 31.9095 32.1962C31.9078 32.1986 31.9063 32.2008 31.9047 32.203C30.6761 33.9547 29.3778 35.8683 28.0749 37.8525C25.0773 38.0023 20.7453 40.5266 18.8401 44.2147L6.23264 68.6239C5.0193 70.9733 6.08979 73.9474 8.61887 75.2536L15.3144 78.712C15.3144 78.712 15.3147 78.7121 15.3146 78.7122L22.0099 82.1704C22.4454 82.3953 22.9019 82.5594 23.3674 82.6611C24.178 82.8381 25.0158 82.8258 25.8166 82.6169C27.138 82.2722 28.1966 81.4419 28.7973 80.279L30.5315 76.9213C30.5318 76.9209 30.5322 76.9204 30.5323 76.9199C30.5326 76.9195 30.5327 76.919 30.5329 76.9186L41.4049 55.87C43.31 52.1817 42.8609 47.1881 41.2483 44.6569C42.4848 41.4917 43.6097 38.4173 44.5131 35.7472C44.5157 35.7396 44.5185 35.7319 44.521 35.7241C44.9734 34.3861 45.3696 33.1511 45.6966 32.0568C46.4225 31.8787 47.0715 31.4023 47.4409 30.6876L49.0441 27.5839C49.7112 26.2912 49.2027 24.6966 47.9106 24.0291ZM26.0421 78.8555C25.8506 79.2262 25.4926 79.4964 25.0339 79.616C24.5147 79.7513 23.9461 79.68 23.4328 79.415L16.7377 75.9569C16.7375 75.9569 16.7376 75.9568 16.7374 75.9567L10.0419 72.4983C9.04914 71.9855 8.56646 70.8629 8.98778 70.0468L10.0113 68.0651L27.0657 76.874L26.0421 78.8555ZM28.4888 74.1189L11.4343 65.31L20.884 47.0153L37.9383 55.8242L28.4888 74.1189ZM39.2116 52.9916L22.4565 44.3373C24.3362 42.0311 27.4113 40.7369 28.5955 40.9644C29.2141 41.0832 29.8433 40.8159 30.1872 40.2881C31.4277 38.3841 32.6693 36.5371 33.8536 34.8288L41.012 36.3918C40.3182 38.3712 39.5224 40.527 38.6641 42.746L38.3154 42.5659C37.5542 42.1728 36.6192 42.4711 36.2263 43.232C35.8334 43.9929 36.1315 44.9281 36.8924 45.3211L38.5295 46.1667C39.3442 47.1709 39.9677 50.2574 39.2116 52.9916ZM44.853 28.9404C44.841 28.938 44.8289 28.9367 44.8168 28.9346C44.8056 28.9324 44.7945 28.9308 44.7833 28.9292C44.746 28.9234 44.7087 28.9189 44.6714 28.9158C44.6585 28.9148 44.6458 28.9136 44.6329 28.9128C44.5954 28.9107 44.5581 28.9101 44.5207 28.9107C44.5099 28.9109 44.4989 28.9104 44.488 28.9109C44.442 28.9126 44.3964 28.9161 44.351 28.9219C44.3363 28.9238 44.3218 28.9268 44.307 28.929C44.2763 28.9338 44.2457 28.9391 44.2153 28.9456C44.1965 28.9497 44.178 28.9546 44.1595 28.9594C44.1331 28.9662 44.107 28.9735 44.081 28.9817C44.0628 28.9874 44.0445 28.9934 44.0264 28.9997C43.9991 29.0093 43.9723 29.0201 43.9456 29.0313C43.9302 29.0378 43.9147 29.0438 43.8996 29.0508C43.8638 29.0671 43.8288 29.0848 43.7944 29.1038C43.7889 29.1067 43.7833 29.1092 43.7781 29.1123C43.7373 29.1355 43.6978 29.1607 43.6592 29.1873C43.6511 29.1928 43.6436 29.199 43.6357 29.2047C43.6061 29.226 43.5771 29.2482 43.549 29.2718C43.5375 29.2813 43.5264 29.2915 43.5152 29.3014C43.4918 29.322 43.4691 29.3434 43.4469 29.3655C43.4346 29.3779 43.4223 29.3906 43.4103 29.4034C43.3908 29.4242 43.3721 29.446 43.3536 29.468C43.3412 29.4829 43.3287 29.4976 43.3168 29.5129C43.3002 29.5347 43.2845 29.5573 43.2689 29.5799C43.2573 29.5966 43.2452 29.6128 43.2345 29.63C43.2131 29.6638 43.1933 29.6988 43.1743 29.7346C43.1519 29.7772 43.1316 29.8212 43.1129 29.8661C43.1089 29.8756 43.1041 29.8848 43.1003 29.8943C43.0978 29.9004 43.0962 29.9072 43.0936 29.9137C43.077 29.9579 43.0617 30.0025 43.0492 30.0476C42.7775 31.0273 42.4274 32.1714 42.0141 33.4367L35.7968 32.0791C36.9729 30.4504 38.0462 29.033 38.9457 27.9274C38.9742 27.8923 39.0008 27.8553 39.0264 27.8174C39.0309 27.8106 39.0364 27.8042 39.0409 27.7974C39.0458 27.7899 39.0498 27.7817 39.0546 27.7742C39.0813 27.7318 39.106 27.6886 39.1283 27.6444C39.1465 27.6083 39.1637 27.5717 39.1787 27.5348C39.1862 27.5168 39.1921 27.4984 39.1988 27.4802C39.2086 27.4531 39.2185 27.4262 39.2266 27.399C39.232 27.3816 39.2365 27.364 39.2411 27.3464C39.249 27.317 39.2562 27.2877 39.2622 27.2582C39.2653 27.2424 39.2684 27.2265 39.2711 27.2108C39.2769 27.1777 39.2812 27.1447 39.2848 27.1117C39.2861 27.0988 39.2877 27.086 39.2888 27.0731C39.292 27.0333 39.2936 26.9935 39.2937 26.9537C39.2937 26.947 39.2942 26.9406 39.2942 26.934C39.2938 26.8859 39.2912 26.8381 39.2863 26.7905C39.286 26.7876 39.2855 26.7848 39.2852 26.782C39.2806 26.7397 39.2741 26.6975 39.266 26.6559C39.263 26.6407 39.2593 26.6256 39.256 26.6104C39.2495 26.5812 39.2425 26.5523 39.2342 26.5235C39.2291 26.5054 39.2235 26.4875 39.2177 26.4696C39.2094 26.4438 39.2002 26.4183 39.1905 26.3928C39.1836 26.3745 39.1766 26.3562 39.169 26.338C39.1575 26.3109 39.1445 26.2844 39.1314 26.2579C39.1242 26.2431 39.1176 26.2281 39.1097 26.2135C39.0885 26.1739 39.0654 26.1352 39.0407 26.0976C39.0332 26.0862 39.0249 26.0755 39.0171 26.0642C38.9975 26.036 38.9772 26.0082 38.9557 25.9811C38.9465 25.9696 38.9367 25.9583 38.9271 25.947C38.9043 25.9199 38.8805 25.8938 38.8556 25.8682C38.8466 25.8591 38.8379 25.8499 38.8286 25.8409C38.8203 25.8327 38.8126 25.8239 38.8042 25.816L40.0281 23.4478L46.0764 26.5718L44.853 28.9404Z" fill="white"/>
<path d="M34.2524 40.4679L34.219 40.4508C33.4579 40.0589 32.5228 40.358 32.1307 41.1192C31.7385 41.8806 32.0378 42.8154 32.7992 43.2075L32.8325 43.2248C32.9556 43.2882 33.0833 43.3335 33.2125 43.3617C33.8819 43.5079 34.5922 43.1943 34.9209 42.5562C35.313 41.7948 35.0137 40.8599 34.2524 40.4679Z" fill="white"/>
<path d="M30.2561 58.7914C29.7817 57.3034 28.7563 56.0896 27.3688 55.3729C26.9127 55.1373 26.4289 54.9626 25.9308 54.8538C23.352 54.2908 20.7043 55.5369 19.4922 57.8842C18.7755 59.2716 18.642 60.855 19.1164 62.3428C19.5907 63.8306 20.6161 65.0446 22.0035 65.7611C22.4596 65.9967 22.9434 66.1713 23.4415 66.28C26.0202 66.843 28.668 65.5971 29.8803 63.2497C30.5971 61.8625 30.7305 60.279 30.2561 58.7914ZM27.1253 61.8268C26.5559 62.9293 25.3132 63.5146 24.1032 63.2504C23.8697 63.1994 23.6422 63.1172 23.4265 63.0059C22.775 62.6694 22.2936 62.0992 22.0709 61.4007C21.8482 60.702 21.9108 59.9587 22.2475 59.3071C22.8167 58.2046 24.0595 57.6191 25.2695 57.8833C25.5029 57.9343 25.7305 58.0165 25.9461 58.1279C26.5976 58.4644 27.0791 59.0345 27.3018 59.7332C27.5243 60.4318 27.4616 61.1753 27.1253 61.8268Z" fill="white"/>
<path d="M75.616 83.7733L74.33 56.3306C74.1356 52.1838 71.2501 48.0835 68.5877 46.6982C68.2304 44.3515 67.8479 42.0708 67.4613 39.9666C67.4608 39.9638 67.4603 39.9611 67.4598 39.9583C67.0172 37.5495 66.5696 35.3736 66.148 33.5966C66.3082 33.4555 66.4516 33.2966 66.5728 33.1224C66.9412 32.593 67.0766 31.9626 66.959 31.3587L66.8092 28.1647C66.871 27.5642 66.6841 26.9608 66.278 26.4751C65.7442 25.8359 64.8881 25.4634 64.0435 25.5031L56.3187 25.865C55.616 25.898 54.9675 26.2035 54.4927 26.7251C54.0177 27.2469 53.7742 27.9212 53.8072 28.6238L53.9705 32.1135C54.0084 32.917 54.3997 33.6206 54.9855 34.085C54.8266 35.2153 54.672 36.5023 54.5255 37.9062C54.5243 37.9161 54.5236 37.9261 54.5225 37.9361C54.2308 40.7387 53.972 44.0008 53.7768 47.3922C51.2559 49.0208 48.7663 53.373 48.9606 57.5195L50.2466 84.962C50.308 86.2696 50.9242 87.4656 51.9817 88.3295C52.6226 88.8534 53.379 89.2136 54.1896 89.3906C54.6549 89.4922 55.1384 89.5335 55.6279 89.5104L70.6834 88.8049C72.0258 88.742 73.2759 88.2034 74.2034 87.2883C75.1757 86.329 75.6773 85.0808 75.616 83.7733ZM57.2754 31.6748C57.2537 31.6663 57.2314 31.6582 57.2092 31.6505C57.1838 31.6416 57.1583 31.6335 57.1323 31.626C57.1147 31.6208 57.0971 31.6157 57.079 31.6112C57.0696 31.6088 57.0606 31.6057 57.0512 31.6035L56.9266 28.9405L63.7265 28.6224L63.8515 31.2851C63.8405 31.2889 63.8298 31.2936 63.8189 31.2975C63.8067 31.302 63.7946 31.3066 63.7824 31.3113C63.7495 31.3241 63.7171 31.338 63.6853 31.3528C63.6716 31.3593 63.6579 31.3655 63.6444 31.3723C63.614 31.3877 63.5844 31.4042 63.5552 31.4215C63.5432 31.4287 63.5306 31.4353 63.5187 31.4427C63.481 31.4665 63.444 31.492 63.4085 31.5188C63.3946 31.5293 63.3816 31.5409 63.3681 31.5519C63.3459 31.5699 63.3238 31.5881 63.3027 31.6071C63.2877 31.6207 63.2734 31.6349 63.2589 31.6491C63.2399 31.6677 63.2214 31.6865 63.2035 31.7061C63.1904 31.7202 63.1775 31.7347 63.165 31.7494C63.1458 31.7717 63.1278 31.7946 63.11 31.8179C63.1002 31.8306 63.0902 31.8432 63.081 31.8563C63.057 31.8901 63.0341 31.9249 63.0127 31.9606C63.0107 31.9638 63.0084 31.9669 63.0066 31.9702C62.9824 32.0112 62.9603 32.0535 62.9399 32.0967C62.9369 32.1033 62.9343 32.1101 62.9314 32.1168C62.9153 32.1523 62.9002 32.1885 62.8868 32.2254C62.8823 32.2379 62.8784 32.2507 62.8741 32.2632C62.8636 32.2944 62.854 32.326 62.8454 32.3581C62.8412 32.3737 62.8373 32.3895 62.8335 32.4053C62.8268 32.4345 62.8212 32.4639 62.8161 32.4937C62.8129 32.5119 62.8098 32.5298 62.8071 32.5481C62.8033 32.5763 62.8011 32.6047 62.7988 32.6333C62.7973 32.6526 62.795 32.6719 62.7944 32.6913C62.7927 32.7332 62.7927 32.7752 62.7946 32.8177C62.7963 32.8622 62.8008 32.907 62.8066 32.9517C62.8081 32.9636 62.8086 32.976 62.8103 32.9879C62.8111 32.993 62.8125 32.9981 62.8133 33.003C62.8211 33.0517 62.8308 33.0997 62.8431 33.1466C63.1999 34.5264 63.5846 36.2615 63.9747 38.2318L57.7575 36.8743C57.9093 35.5518 58.0678 34.3658 58.2293 33.3622C58.2368 33.3158 58.2415 33.2684 58.2448 33.2207C58.2453 33.2143 58.2463 33.208 58.2467 33.2018C58.2472 33.1914 58.2467 33.1808 58.2469 33.1704C58.2486 33.1241 58.249 33.0778 58.2466 33.0321C58.2444 32.9891 58.2405 32.9466 58.2348 32.9046C58.2324 32.886 58.2284 32.8677 58.2252 32.849C58.2202 32.8202 58.215 32.7912 58.2084 32.763C58.2043 32.7454 58.1994 32.728 58.1947 32.7105C58.1867 32.6813 58.1783 32.6523 58.169 32.6238C58.1637 32.608 58.1582 32.5925 58.1525 32.577C58.1414 32.5468 58.1291 32.517 58.116 32.4876C58.1101 32.4743 58.1046 32.4608 58.0982 32.4477C58.0828 32.4153 58.066 32.3837 58.0486 32.3526C58.043 32.343 58.0382 32.3332 58.0326 32.3237C58.0093 32.2845 57.9845 32.2462 57.9579 32.2093C57.9488 32.1966 57.9386 32.1846 57.9291 32.1721C57.9116 32.1492 57.8941 32.1265 57.8752 32.1048C57.8596 32.0863 57.8428 32.0688 57.8262 32.0511C57.8126 32.0368 57.7992 32.0226 57.7852 32.009C57.7656 31.9896 57.7453 31.9707 57.7246 31.9524C57.7131 31.9423 57.7014 31.9326 57.6898 31.9227C57.6663 31.9032 57.6426 31.8839 57.618 31.8656C57.6104 31.8602 57.6028 31.8552 57.5953 31.8497C57.5122 31.7906 57.4228 31.7397 57.3277 31.6977C57.3105 31.6899 57.2932 31.682 57.2754 31.6748ZM55.6195 49.8982L57.4599 49.812C58.3154 49.772 58.9763 49.046 58.9361 48.1907C58.8959 47.3354 58.1698 46.6741 57.3148 46.7145L56.9228 46.7329C57.0678 44.3579 57.2429 42.0664 57.4372 39.9782L64.5957 41.5413C64.9601 43.5878 65.319 45.7842 65.6528 48.032C65.7455 48.655 66.2059 49.1602 66.8178 49.31C67.9889 49.5968 70.2446 52.055 70.9919 54.9349L52.1544 55.8177C52.6069 53.0169 54.4603 50.4713 55.6195 49.8982ZM53.0949 79.4916L52.131 58.9231L71.3049 58.0244L72.2688 78.593L53.0949 79.4916ZM72.0256 85.081C71.6436 85.4578 71.1155 85.6804 70.5386 85.7074L55.4831 86.413C54.9061 86.4399 54.3597 86.268 53.9441 85.9284C53.577 85.6284 53.3642 85.2337 53.3446 84.8168L53.2402 82.589L72.4141 81.6904L72.5185 83.9184C72.5379 84.3352 72.363 84.7482 72.0256 85.081Z" fill="white"/>
<path d="M63.5393 47.9755C63.4992 47.1203 62.7739 46.459 61.9182 46.499L61.8808 46.5009C61.0254 46.5409 60.3644 47.2668 60.4045 48.122C60.4378 48.8385 60.9524 49.4186 61.6214 49.5647C61.751 49.593 61.8867 49.605 62.0256 49.5985L62.063 49.5966C62.9184 49.5566 63.5793 48.8308 63.5393 47.9755Z" fill="white"/>
<path d="M68.0396 68.4843C67.9161 65.8453 66.0286 63.6089 63.4499 63.0458C62.9519 62.9371 62.4393 62.8942 61.9265 62.9182C60.3665 62.9912 58.9286 63.6674 57.8771 64.8221C56.8259 65.9768 56.2872 67.4718 56.3601 69.0317C56.4839 71.6704 58.3713 73.9068 60.9498 74.4699C60.95 74.47 60.95 74.47 60.9501 74.47C61.448 74.5787 61.9606 74.6216 62.4734 74.5977C64.0332 74.5247 65.4713 73.8486 66.5226 72.6939C67.574 71.5391 68.1127 70.0442 68.0396 68.4843ZM64.2299 70.6061C63.7361 71.1484 63.0609 71.4658 62.3286 71.5001C62.0863 71.5115 61.8451 71.4914 61.6118 71.4404C61.6118 71.4404 61.6118 71.4404 61.6116 71.4404C60.4017 71.1762 59.5159 70.1259 59.4578 68.8866C59.4235 68.1542 59.6764 67.4523 60.17 66.91C60.6637 66.3677 61.3389 66.0503 62.0714 66.0158C62.3137 66.0045 62.555 66.0246 62.7884 66.0756C63.9983 66.3398 64.884 67.39 64.942 68.6296C64.9764 69.3619 64.7235 70.0638 64.2299 70.6061Z" fill="white"/>
<path d="M55.7132 8.46717C54.8765 8.28449 54.0503 8.8146 53.8676 9.65123L52.9824 13.7055C52.7997 14.5421 53.3298 15.3684 54.1664 15.551C55.0029 15.7337 55.8293 15.2036 56.012 14.367L56.8972 10.3127C57.0799 9.4761 56.5498 8.64984 55.7132 8.46717Z" fill="white"/>
<path d="M48.9868 14.9643L47.6939 11.0036C47.4283 10.1895 46.5528 9.74489 45.7388 10.0107C44.9248 10.2764 44.4804 11.1517 44.746 11.9658L46.0389 15.9265C46.216 16.4689 46.6636 16.8473 47.1835 16.9608C47.4439 17.0176 47.7225 17.0081 47.994 16.9194C48.8081 16.6535 49.2525 15.7782 48.9868 14.9643Z" fill="white"/>
<path d="M64.1366 14.0278C63.5072 13.4468 62.5262 13.4862 61.9455 14.1153L59.1193 17.1766C58.5385 17.8059 58.5776 18.7868 59.2068 19.3676C59.4168 19.5615 59.6659 19.6862 59.9263 19.7431C60.4462 19.8566 61.0108 19.6993 61.398 19.2801L64.2241 16.2188C64.8049 15.5895 64.7657 14.6086 64.1366 14.0278Z" fill="white"/>
</g>
<defs>
<clipPath id="clip0_1198_2606">
<rect width="79.386" height="79.386" fill="white" transform="translate(16.9346) rotate(12.317)"/>
</clipPath>
</defs>
</svg>
