<svg width="67" height="78" viewBox="0 0 67 78" fill="none" xmlns="http://www.w3.org/2000/svg">
<path d="M66.4792 62.0761L63.9183 30.7692C63.8667 30.1403 63.319 29.6737 62.7011 29.7248C62.0803 29.7769 61.6187 30.329 61.6701 30.9579L64.1379 61.1261L58.5432 61.5955L58.0466 59.0003L58.8649 58.9314C59.4857 58.8792 59.9471 58.3271 59.8957 57.6982C59.8441 57.0692 59.298 56.6021 58.6781 56.654L57.6147 56.7435L57.2873 55.0331L58.5381 54.9281C59.1589 54.876 59.6205 54.3241 59.569 53.6952C59.5176 53.0662 58.9718 52.5997 58.3518 52.6508L56.8554 52.7763L54.5582 40.7728L59.4708 40.3601C60.0916 40.308 60.553 39.7559 60.5016 39.127L57.5078 2.52859L59.332 2.37549L61.1948 25.1468C61.2436 25.7435 61.7368 26.195 62.3176 26.195C62.3489 26.195 62.3804 26.1937 62.412 26.1911C63.0328 26.139 63.4944 25.5869 63.4429 24.958L61.4871 1.04811C61.4357 0.419239 60.8911 -0.0470851 60.2699 0.0037977L18.2 3.53452C18.1988 3.53467 18.1978 3.53452 18.1966 3.53467C18.1954 3.53482 18.1943 3.53497 18.1931 3.53513L14.1243 3.87668C13.5035 3.92878 13.0419 4.48088 13.0934 5.1096L13.7545 13.1983L5.44209 14.8307C5.44194 14.8307 5.44179 14.8307 5.44179 14.8307C5.44164 14.8307 5.44149 14.8308 5.44134 14.8308L1.43012 15.6186C1.13656 15.6762 0.877438 15.8497 0.710053 16.1009C0.542668 16.3521 0.480708 16.6603 0.537555 16.9578L6.49137 48.0679C6.61003 48.6874 7.20061 49.0928 7.81345 48.9723C8.42494 48.8522 8.82468 48.2526 8.70617 47.6332L2.96666 17.6444L4.76368 17.2916L11.6632 53.343C11.7677 53.889 12.2399 54.2683 12.7693 54.2683C12.8404 54.2683 12.9126 54.2615 12.9852 54.2472L40.3626 48.8708C40.9741 48.7508 41.3739 48.1511 41.2554 47.5317C41.1369 46.9124 40.5463 46.507 39.9333 46.6274L13.6632 51.7864L6.97834 16.8565L42.1971 9.94027L48.8821 44.8701L44.7219 45.6871C44.1104 45.8072 43.7106 46.4068 43.8292 47.0262C43.9337 47.5722 44.4059 47.9516 44.9353 47.9516C45.0064 47.9516 45.0786 47.9447 45.1512 47.9304L50.4187 46.896C50.7122 46.8384 50.9714 46.6649 51.1387 46.4136C51.3061 46.1624 51.3681 45.8542 51.3112 45.5567L44.4119 9.50533L46.2089 9.1525L57.2848 67.0262L14.0426 75.5182L9.71544 52.9082C9.59694 52.2889 9.00635 51.8835 8.39336 52.0039C7.78187 52.124 7.38213 52.7236 7.50064 53.343L12.0424 77.0747C12.147 77.6207 12.6192 78 13.1486 78C13.2197 78 13.2919 77.9931 13.3645 77.9788L58.8213 69.0519C59.1149 68.9943 59.374 68.8208 59.5414 68.5696C59.7087 68.3184 59.7707 68.0102 59.7139 67.7127L58.975 63.8517L65.4481 63.3086C65.7462 63.2834 66.0223 63.1396 66.2157 62.9084C66.4092 62.6776 66.504 62.3781 66.4792 62.0761ZM15.9824 12.7608L15.4345 6.05961L17.259 5.90651L17.7913 12.4055L15.9824 12.7608ZM48.2088 7.596C48.0902 6.97657 47.4994 6.57149 46.8867 6.69169L20.0192 11.968L19.5074 5.71775L55.2596 2.71719L58.1603 38.177L54.1262 38.5158L48.2088 7.596Z" fill="#9FE9FF"/>
</svg>
