<svg width="130" height="130" viewBox="0 0 130 130" fill="none" xmlns="http://www.w3.org/2000/svg">
<g clip-path="url(#clip0_1198_2570)">
<path d="M20.6782 66.3333C16.4232 68.0151 14.3306 72.8429 16.0124 77.0978C17.6941 81.3528 22.522 83.4453 26.7769 81.7636C31.0318 80.0819 33.1244 75.254 31.4427 70.9991C29.7609 66.7442 24.9331 64.6516 20.6782 66.3333ZM25.2522 77.9059C23.1228 78.7476 20.7101 77.6985 19.87 75.5731C19.03 73.4477 20.0735 71.0326 22.2029 70.191C24.3322 69.3494 26.745 70.3984 27.585 72.5238C28.4251 74.6492 27.3815 77.0643 25.2522 77.9059Z" fill="#9FE9FF"/>
<path d="M77.4211 48.3928L71.4467 43.038C70.8612 42.5157 70.0306 42.3667 69.3015 42.6548L63.5152 44.9418C63.0022 45.1446 62.593 45.5428 62.3761 46.0433L58.0509 56.022L27.9891 67.9038C26.9244 68.3246 26.4018 69.5303 26.8226 70.595C27.2403 71.6519 28.433 72.1753 29.4867 71.7722C28.577 72.1451 28.0329 73.1272 28.2492 74.1255C28.4865 75.245 29.5934 75.9582 30.7114 75.717C38.2435 74.1004 51.42 72.242 55.3058 73.9933L55.5254 74.1876C61.9914 79.8832 70.0399 86.9649 78.7619 83.5176L105.765 72.8449C113.46 69.8032 117.627 63.3617 115.454 57.8647C113.146 52.0242 94.2992 42.5158 77.4211 48.3928ZM104.24 68.9872L77.2372 79.66C70.876 82.1742 64.1745 76.2772 58.2687 71.0738L57.8396 70.6992C57.7184 70.5956 57.5832 70.5018 57.4409 70.4242C51.3145 67.1901 32.0193 71.1949 29.8407 71.6634C29.7405 71.6806 29.6371 71.7127 29.5445 71.7493L60.374 59.5641C60.887 59.3613 61.2962 58.9631 61.5131 58.4626L65.8383 48.484L69.6341 46.9837L75.5878 52.3199C76.1733 52.8422 77.0038 52.9912 77.7329 52.7031C93.5565 46.4489 110.456 56.5039 111.597 59.3893C112.858 62.5793 109.56 66.8847 104.24 68.9872Z" fill="#9FE9FF"/>
<path d="M110.833 57.4565L95.3567 63.5735C92.7798 64.592 89.8946 63.8145 88.1797 61.6423L78.5938 49.4859C77.8866 48.588 76.5816 48.4347 75.6837 49.1419C74.7835 49.8546 74.6302 51.1596 75.3412 52.056L84.9272 64.2124C87.7869 67.8365 92.5934 69.1303 96.8829 67.4349L112.359 61.318C113.424 60.8971 113.945 59.6877 113.524 58.623C113.103 57.5583 111.898 57.0357 110.833 57.4565Z" fill="#9FE9FF"/>
<path d="M24.9083 66.1689L18.0014 59.9785C17.181 59.2457 15.9285 59.2814 15.1512 60.0569L11.8997 63.2956C11.1372 64.0519 11.0829 65.2686 11.7758 66.0966L15.9916 71.1205C16.7345 71.9954 18.0449 72.1064 18.9152 71.3743C19.7932 70.6393 19.9096 69.3311 19.169 68.4507L16.1774 64.8875L16.6893 64.3774L22.1442 69.2639C22.7504 69.8048 23.5834 69.9261 24.2893 69.6471C24.5786 69.5327 24.8443 69.3474 25.0686 69.1026C25.8325 68.2477 25.7608 66.938 24.9083 66.1689Z" fill="#9FE9FF"/>
<path d="M28.1242 77.0026C26.9908 76.911 25.9791 77.7478 25.8773 78.8899L25.8249 79.4682C25.2984 78.655 24.2568 78.2994 23.3234 78.6683C22.2587 79.0891 21.7361 80.2948 22.1569 81.3595L23.6815 85.217C24.1024 86.2817 25.3081 86.8043 26.3727 86.3834L28.3016 85.6211C29.0306 85.3329 29.5349 84.6563 29.6074 83.8696L30.0116 79.2497C30.1094 78.1093 29.2663 77.1044 28.1242 77.0026Z" fill="#9FE9FF"/>
<path d="M62.7988 31.8447C61.7341 32.2655 61.2115 33.4712 61.6324 34.5359L62.3947 36.4647C62.8155 37.5294 64.0212 38.052 65.0859 37.6312C66.1506 37.2104 66.6732 36.0047 66.2524 34.94L65.49 33.0112C65.0689 31.9464 63.8635 31.4239 62.7988 31.8447Z" fill="#9FE9FF"/>
<path d="M99.0413 21.9802L64.3235 35.7022C63.2588 36.123 62.7362 37.3287 63.157 38.3934C63.5778 39.4581 64.7835 39.9807 65.8482 39.5599L100.566 25.8378C101.631 25.417 102.153 24.2113 101.733 23.1466C101.312 22.0819 100.106 21.5594 99.0413 21.9802Z" fill="#9FE9FF"/>
<path d="M64.3234 35.7022L29.6056 49.4243C28.5409 49.8451 28.0183 51.0508 28.4391 52.1155C28.8599 53.1802 30.0656 53.7028 31.1303 53.2819L65.8482 39.5599C66.9128 39.1391 67.4354 37.9334 67.0146 36.8687C66.5938 35.804 65.3881 35.2814 64.3234 35.7022Z" fill="#9FE9FF"/>
<path d="M88.8098 75.0859C87.7451 75.5067 87.2225 76.7124 87.6433 77.7771L90.6927 85.4922C91.1135 86.5569 92.3192 87.0795 93.3839 86.6587C94.4486 86.2379 94.9712 85.0322 94.5504 83.9675L91.501 76.2524C91.0801 75.1875 89.8745 74.6651 88.8098 75.0859Z" fill="#9FE9FF"/>
<path d="M104.24 68.9872C103.175 69.408 102.653 70.6137 103.074 71.6783L106.123 79.3935C106.544 80.4582 107.75 80.9808 108.814 80.56C109.879 80.1392 110.401 78.9335 109.981 77.8688L106.931 70.1536C106.51 69.0888 105.305 68.5663 104.24 68.9872Z" fill="#9FE9FF"/>
<path d="M118.376 68.1454C117.241 67.992 116.195 68.7889 116.042 69.9243C115.773 71.9174 112.449 74.4087 111.147 75.1774L72.5716 90.4241C71.5069 90.845 70.9843 92.0507 71.4051 93.1153C71.8259 94.18 73.0316 94.7026 74.0963 94.2818L112.93 78.9105C113.604 78.5281 119.538 75.0455 120.154 70.4758C120.307 69.3404 119.512 68.2987 118.376 68.1454Z" fill="#9FE9FF"/>
</g>
<defs>
<clipPath id="clip0_1198_2570">
<rect width="99.553" height="99.553" fill="white" transform="translate(0 36.5933) rotate(-21.5662)"/>
</clipPath>
</defs>
</svg>
