<svg width="156" height="142" viewBox="0 0 156 142" fill="none" xmlns="http://www.w3.org/2000/svg">
<path d="M143.141 71.1502V56.4165C143.141 53.7352 139.764 52.3681 137.901 54.3022L121.946 70.8574H101.488V32.5808C101.488 23.8103 94.3529 16.6752 85.5825 16.6752H18.9424C19.2529 11.2633 23.7537 6.95593 29.2418 6.95593H95.4278C104.558 6.95593 111.987 14.3839 111.987 23.5145V47.2173C111.987 48.9001 113.351 50.2642 115.034 50.2642C116.716 50.2642 118.08 48.9001 118.08 47.2173V23.5145C118.08 11.0238 107.918 0.862183 95.4278 0.862183H29.2418C20.2931 0.862183 12.9992 8.06347 12.8392 16.9747C5.5313 18.4079 0 24.8594 0 32.5808V71.0512C0 78.9743 5.82319 85.5629 13.4145 86.7621V101.396C13.4145 104.073 16.7889 105.447 18.6551 103.51L34.6085 86.9565H54.5129V98.077C54.5129 99.7598 55.8773 101.124 57.5597 101.124C59.2422 101.124 60.6066 99.7598 60.6066 98.077V86.7627C60.6066 81.4346 65.0916 76.9524 70.4185 76.9524L123.241 76.9509C124.068 76.9509 124.86 76.6142 125.435 76.0182L137.047 63.9684V73.904C137.047 75.5868 138.411 76.9509 140.094 76.9509C145.504 76.9509 149.906 81.3524 149.906 86.7627V125.232C149.906 130.642 145.504 135.044 140.094 135.044H70.4188C65.0084 135.044 60.6069 130.642 60.6069 125.232C60.6069 123.549 59.2425 122.185 57.56 122.185C55.8776 122.185 54.5132 123.549 54.5132 125.232C54.5132 134.002 61.6483 141.138 70.4188 141.138H140.094C148.865 141.138 156 134.002 156 125.232V86.763C156 79.0343 150.459 72.5753 143.141 71.1502ZM33.3136 80.8631C32.4861 80.8631 31.6942 81.1997 31.1199 81.7957L19.5085 93.844V83.9099C19.5085 82.2271 18.1441 80.8631 16.4617 80.8631H15.9059C10.4953 80.8631 6.09375 76.4615 6.09375 71.0512V32.5808C6.09375 27.1704 10.4953 22.7689 15.9056 22.7689H85.5825C90.9928 22.7689 95.3943 27.1704 95.3943 32.5808V70.8574H70.4188C65.4344 70.8574 60.631 73.2294 57.6545 77.2355C56.827 78.3494 56.1481 79.5724 55.6381 80.8631H33.3136Z" fill="url(#paint0_linear_826_79)"/>
<path d="M46.1065 62.3811C46.5693 61.2031 46.8265 59.9225 46.8265 58.5822V45.2046C46.8265 39.457 42.1505 34.7812 36.4031 34.7812H30.2256C24.4783 34.7812 19.8022 39.4573 19.8022 45.2046V58.5822C19.8022 64.3295 24.4783 69.0056 30.2256 69.0056H36.4028C38.5847 69.0056 40.6112 68.3304 42.287 67.1799L44.7939 69.6869C45.389 70.2819 46.1687 70.5793 46.9484 70.5793C47.7281 70.5793 48.5078 70.2819 49.1028 69.6869C50.2926 68.4971 50.2926 66.5678 49.1028 65.3777L46.1065 62.3811ZM36.4031 62.9118H30.2256C27.8384 62.9118 25.896 60.9694 25.896 58.5822V45.2046C25.896 42.8174 27.8384 40.875 30.2256 40.875H36.4028C38.7901 40.875 40.7324 42.8174 40.7324 45.2046V57.0073L37.9104 54.1853C36.7203 52.9955 34.7916 52.9955 33.6012 54.1853C32.4114 55.3751 32.4114 57.3044 33.6012 58.4945L37.7876 62.6809C37.3525 62.828 36.8876 62.9118 36.4031 62.9118Z" fill="url(#paint1_linear_826_79)"/>
<path d="M57.3239 51.5396C57.954 53.0764 59.7723 53.822 61.3034 53.1879C62.839 52.5521 63.5837 50.7416 62.9484 49.2087C62.3128 47.6746 60.5066 46.9269 58.9722 47.5604C57.44 48.1929 56.6862 50.0088 57.3239 51.5396Z" fill="url(#paint2_linear_826_79)"/>
<path d="M73.4541 51.5396C74.0833 53.0746 75.9044 53.8226 77.4333 53.188C78.9674 52.5512 79.7178 50.7447 79.0817 49.2088C78.4467 47.6756 76.6356 46.9245 75.1024 47.5604C73.5723 48.1948 72.8161 50.0083 73.4541 51.5396Z" fill="url(#paint3_linear_826_79)"/>
<path d="M114.045 106.35C114.757 107.436 116.143 107.94 117.388 107.595C118.668 107.24 119.586 106.062 119.621 104.734C119.693 102.023 116.255 100.582 114.376 102.553C113.403 103.574 113.26 105.173 114.045 106.35Z" fill="url(#paint4_linear_826_79)"/>
<path d="M130.175 106.35C131.1 107.727 133.016 108.118 134.4 107.194C135.785 106.27 136.157 104.351 135.242 102.968C134.324 101.581 132.394 101.214 131.016 102.127C129.632 103.044 129.257 104.974 130.175 106.35Z" fill="url(#paint5_linear_826_79)"/>
<path d="M79.2885 123.291C80.5359 123.291 81.7062 122.52 82.1544 121.279L84.5508 114.646H94.8148L97.3742 121.333C97.9753 122.904 99.7376 123.69 101.309 123.089C102.88 122.488 103.667 120.726 103.065 119.154L92.2978 91.0235C91.8465 89.8435 90.714 89.0659 89.4526 89.0659C89.4428 89.0659 89.4334 89.0659 89.4233 89.0659C88.1504 89.0781 87.0191 89.88 86.5864 91.0775L76.4232 119.208C75.8517 120.791 76.671 122.537 78.2538 123.109C78.5957 123.233 78.9451 123.291 79.2885 123.291ZM89.5346 100.852L92.4821 108.553H86.7522L89.5346 100.852Z" fill="url(#paint6_linear_826_79)"/>
<path d="M54.7462 113.065C55.2374 114.264 56.4909 115.038 57.7836 114.938C59.0554 114.84 60.152 113.942 60.4944 112.713C61.2175 110.117 58.3059 107.918 55.9951 109.29C54.7148 110.05 54.1743 111.693 54.7462 113.065Z" fill="url(#paint7_linear_826_79)"/>
<path d="M117.847 59.3945C117.218 57.8595 115.397 57.1112 113.867 57.7462C112.333 58.383 111.583 60.1895 112.219 61.7254C112.854 63.2577 114.666 64.01 116.199 63.3738C117.729 62.7382 118.486 60.9268 117.847 59.3945Z" fill="url(#paint8_linear_826_79)"/>
<defs>
<linearGradient id="paint0_linear_826_79" x1="0" y1="70.9989" x2="157.365" y2="70.9989" gradientUnits="userSpaceOnUse">
<stop stop-color="#FAB7FE"/>
<stop offset="1" stop-color="#57C3FF"/>
</linearGradient>
<linearGradient id="paint1_linear_826_79" x1="19.8022" y1="52.68" x2="50.2594" y2="52.68" gradientUnits="userSpaceOnUse">
<stop stop-color="#FAB7FE"/>
<stop offset="1" stop-color="#57C3FF"/>
</linearGradient>
<linearGradient id="paint2_linear_826_79" x1="57.0967" y1="50.3744" x2="63.2287" y2="50.3744" gradientUnits="userSpaceOnUse">
<stop stop-color="#FAB7FE"/>
<stop offset="1" stop-color="#57C3FF"/>
</linearGradient>
<linearGradient id="paint3_linear_826_79" x1="73.2271" y1="50.374" x2="79.3617" y2="50.374" gradientUnits="userSpaceOnUse">
<stop stop-color="#FAB7FE"/>
<stop offset="1" stop-color="#57C3FF"/>
</linearGradient>
<linearGradient id="paint4_linear_826_79" x1="113.539" y1="104.67" x2="119.676" y2="104.67" gradientUnits="userSpaceOnUse">
<stop stop-color="#FAB7FE"/>
<stop offset="1" stop-color="#57C3FF"/>
</linearGradient>
<linearGradient id="paint5_linear_826_79" x1="129.672" y1="104.661" x2="135.796" y2="104.661" gradientUnits="userSpaceOnUse">
<stop stop-color="#FAB7FE"/>
<stop offset="1" stop-color="#57C3FF"/>
</linearGradient>
<linearGradient id="paint6_linear_826_79" x1="76.2412" y1="106.178" x2="103.504" y2="106.178" gradientUnits="userSpaceOnUse">
<stop stop-color="#FAB7FE"/>
<stop offset="1" stop-color="#57C3FF"/>
</linearGradient>
<linearGradient id="paint7_linear_826_79" x1="54.5189" y1="111.908" x2="60.6602" y2="111.908" gradientUnits="userSpaceOnUse">
<stop stop-color="#FAB7FE"/>
<stop offset="1" stop-color="#57C3FF"/>
</linearGradient>
<linearGradient id="paint8_linear_826_79" x1="111.992" y1="60.56" x2="118.128" y2="60.56" gradientUnits="userSpaceOnUse">
<stop stop-color="#FAB7FE"/>
<stop offset="1" stop-color="#57C3FF"/>
</linearGradient>
</defs>
</svg>
