<svg width="240" height="240" viewBox="0 0 240 240" fill="none" xmlns="http://www.w3.org/2000/svg">
<path d="M232.258 120C232.258 162.689 197.528 197.419 154.839 197.419C132.352 197.419 112.134 187.723 97.9781 172.359C110.981 180.906 127.781 185.806 147.097 185.806C171.333 185.806 187.455 173.926 188.129 173.419L183.492 167.218C183.345 167.33 168.646 178.065 147.097 178.065C130.955 178.065 116.899 174.53 105.693 168.221C110.234 169.572 115.026 170.323 120 170.323C166.959 170.323 205.161 132.12 205.161 85.1613C205.161 38.2026 166.959 0 120 0V7.74194C162.689 7.74194 197.419 42.4723 197.419 85.1613C197.419 107.652 187.723 127.87 172.359 142.026C180.906 129.023 185.806 112.219 185.806 92.9032C185.806 68.6671 173.926 52.5445 173.419 51.871L167.222 56.5084C167.33 56.6555 178.065 71.3535 178.065 92.9032C178.065 109.045 174.53 123.101 168.221 134.311C169.572 129.77 170.323 124.974 170.323 120C170.323 73.0413 132.12 34.8387 85.1613 34.8387C38.2026 34.8387 0 73.0413 0 120H7.74194C7.74194 77.311 42.4723 42.5806 85.1613 42.5806C107.648 42.5806 127.866 52.2774 142.022 67.6413C129.019 59.0942 112.219 54.1935 92.9032 54.1935C68.6671 54.1935 52.5445 66.0735 51.871 66.5806L56.5084 72.7781C56.6555 72.6697 71.3535 61.9355 92.9032 61.9355C109.045 61.9355 123.101 65.4697 134.307 71.7794C129.766 70.4284 124.974 69.6774 120 69.6774C73.0413 69.6774 34.8387 107.88 34.8387 154.839C34.8387 201.797 73.0413 240 120 240V232.258C77.311 232.258 42.5806 197.528 42.5806 154.839C42.5806 132.352 52.2774 112.134 67.6413 97.9781C59.0942 110.981 54.1935 127.781 54.1935 147.097C54.1935 171.337 66.0735 187.455 66.5806 188.129L72.7781 183.492C72.6697 183.345 61.9355 168.646 61.9355 147.097C61.9355 130.955 65.4697 116.899 71.7794 105.693C70.4284 110.234 69.6774 115.026 69.6774 120C69.6774 166.959 107.88 205.161 154.839 205.161C201.797 205.161 240 166.959 240 120H232.258ZM77.64 124.359C77.5394 122.919 77.4193 121.483 77.4193 120C77.4193 97.9935 94.2039 79.831 115.641 77.64C117.081 77.5394 118.517 77.4193 120 77.4193C142.006 77.4193 160.169 94.2039 162.36 115.641C162.461 117.081 162.581 118.517 162.581 120C162.581 142.006 145.796 160.169 124.359 162.36C122.919 162.461 121.483 162.581 120 162.581C97.9935 162.581 79.831 145.8 77.64 124.359Z" fill="url(#paint0_linear_968_451)"/>
<defs>
<linearGradient id="paint0_linear_968_451" x1="0" y1="119.998" x2="242.1" y2="119.998" gradientUnits="userSpaceOnUse">
<stop stop-color="#FAB7FE"/>
<stop offset="1" stop-color="#57C3FF"/>
</linearGradient>
</defs>
</svg>
