<svg width="132" height="132" viewBox="0 0 132 132" fill="none" xmlns="http://www.w3.org/2000/svg">
<path d="M127.742 66C127.742 89.479 108.64 108.581 85.1613 108.581C72.7937 108.581 61.6738 103.247 53.8879 94.7973C61.0394 99.4982 70.2794 102.194 80.9032 102.194C94.2331 102.194 103.101 95.6596 103.471 95.3806L100.92 91.9699C100.839 92.0317 92.7556 97.9355 80.9032 97.9355C72.0252 97.9355 64.2946 95.9917 58.1311 92.5214C60.6285 93.2644 63.2642 93.6774 66 93.6774C91.8273 93.6774 112.839 72.666 112.839 46.8387C112.839 21.0114 91.8273 0 66 0V4.25806C89.479 4.25806 108.581 23.3597 108.581 46.8387C108.581 59.2084 103.247 70.3283 94.7973 78.1142C99.4982 70.9628 102.194 61.7206 102.194 51.0968C102.194 37.7669 95.6596 28.8995 95.3806 28.529L91.9721 31.0796C92.0317 31.1605 97.9355 39.2445 97.9355 51.0968C97.9355 59.9748 95.9917 67.7054 92.5214 73.871C93.2644 71.3737 93.6774 68.7358 93.6774 66C93.6774 40.1727 72.666 19.1613 46.8387 19.1613C21.0114 19.1613 0 40.1727 0 66H4.25806C4.25806 42.521 23.3597 23.4194 46.8387 23.4194C59.2063 23.4194 70.3262 28.7526 78.1121 37.2027C70.9606 32.5018 61.7206 29.8065 51.0968 29.8065C37.7669 29.8065 28.8995 36.3405 28.529 36.6194L31.0796 40.0279C31.1605 39.9683 39.2445 34.0645 51.0968 34.0645C59.9748 34.0645 67.7054 36.0083 73.8689 39.4786C71.3716 38.7356 68.7358 38.3226 66 38.3226C40.1727 38.3226 19.1613 59.334 19.1613 85.1613C19.1613 110.989 40.1727 132 66 132V127.742C42.521 127.742 23.4194 108.64 23.4194 85.1613C23.4194 72.7937 28.7526 61.6738 37.2027 53.8879C32.5018 61.0394 29.8065 70.2794 29.8065 80.9032C29.8065 94.2352 36.3405 103.101 36.6194 103.471L40.0279 100.92C39.9683 100.839 34.0645 92.7556 34.0645 80.9032C34.0645 72.0252 36.0083 64.2946 39.4786 58.1311C38.7356 60.6285 38.3226 63.2642 38.3226 66C38.3226 91.8273 59.334 112.839 85.1613 112.839C110.989 112.839 132 91.8273 132 66H127.742ZM42.702 68.3973C42.6466 67.6053 42.5806 66.8154 42.5806 66C42.5806 53.8965 51.8121 43.907 63.6027 42.702C64.3947 42.6466 65.1846 42.5806 66 42.5806C78.1036 42.5806 88.093 51.8121 89.298 63.6027C89.3534 64.3947 89.4194 65.1846 89.4194 66C89.4194 78.1036 80.1879 88.093 68.3973 89.298C67.6053 89.3534 66.8154 89.4194 66 89.4194C53.8965 89.4194 43.907 80.19 42.702 68.3973Z" fill="url(#paint0_linear_1198_2642)"/>
<defs>
<linearGradient id="paint0_linear_1198_2642" x1="0" y1="65.9991" x2="133.155" y2="65.9991" gradientUnits="userSpaceOnUse">
<stop stop-color="#FAB7FE"/>
<stop offset="1" stop-color="#57C3FF"/>
</linearGradient>
</defs>
</svg>
