<svg width="202" height="168" viewBox="0 0 202 168" fill="none" xmlns="http://www.w3.org/2000/svg">
<path opacity="0.08" d="M202 0C197.305 17.2136 192.61 35.8802 187.915 56C183.444 75.8962 179.308 95.5689 175.508 115.018C171.707 134.467 168.689 152.128 166.453 168H107.097L102.066 160.623C106.091 144.303 111.233 126.866 117.492 108.311C123.976 89.7565 130.906 71.2016 138.284 52.6467C145.885 33.8683 153.486 16.3194 161.088 0H202ZM98.5921 0C93.8973 17.2136 89.2024 35.8802 84.5076 56C80.0363 75.8962 75.9003 95.5689 72.0997 115.018C68.2991 134.467 65.281 152.128 63.0453 168H4.02417L0 160.623C4.02417 144.303 9.05438 126.866 15.0906 108.311C21.3505 89.7565 28.1692 71.2016 35.5468 52.6467C42.9245 33.8683 50.4139 16.3194 58.0151 0H98.5921Z" fill="white"/>
</svg>
