<svg width="243" height="203" viewBox="0 0 243 203" fill="none" xmlns="http://www.w3.org/2000/svg">
<path opacity="0.1" d="M243 0.12207C237.352 20.8193 231.704 43.2638 226.057 67.4554C220.678 91.3782 215.702 115.032 211.13 138.417C206.558 161.803 202.928 183.038 200.238 202.122H128.834L122.783 193.252C127.624 173.63 133.81 152.664 141.34 130.354C149.139 108.044 157.476 85.7335 166.352 63.4235C175.496 40.8446 184.64 19.7442 193.784 0.12207H243ZM118.603 0.12207C112.956 20.8193 107.308 43.2638 101.66 67.4554C96.2812 91.3782 91.3058 115.032 86.7338 138.417C82.1618 161.803 78.5311 183.038 75.8416 202.122H4.84096L0 193.252C4.84096 173.63 10.8922 152.664 18.1536 130.354C25.684 108.044 33.8867 85.7335 42.7618 63.4235C51.6369 40.8446 60.6464 19.7442 69.7905 0.12207H118.603Z" fill="#171429"/>
</svg>
